<svg width="140" height="38" viewBox="0 0 140 38" fill="none" xmlns="http://www.w3.org/2000/svg">
<path d="M16.7617 4.41602H10.6641V21H6.5625V4.41602H0.546875V1.09375H16.7617V4.41602ZM35.3145 21H31.2129V12.4688H23.2148V21H19.1133V1.09375H23.2148V9.16016H31.2129V1.09375H35.3145V21ZM43.2715 21H39.1699V1.09375H43.2715V21ZM63.2734 21H59.1719L51.1875 7.90234V21H47.0859V1.09375H51.1875L59.1855 14.2188V1.09375H63.2734V21ZM73.0898 13.0156L70.957 15.3125V21H66.8555V1.09375H70.957V10.1172L72.7617 7.64258L77.834 1.09375H82.8789L75.8105 9.93945L83.084 21H78.2031L73.0898 13.0156ZM99.8184 14.3691C99.6634 16.5111 98.8704 18.1973 97.4395 19.4277C96.0176 20.6582 94.14 21.2734 91.8066 21.2734C89.2546 21.2734 87.2448 20.4167 85.7773 18.7031C84.319 16.9805 83.5898 14.6198 83.5898 11.6211V10.4043C83.5898 8.49023 83.9271 6.80404 84.6016 5.3457C85.276 3.88737 86.2376 2.77083 87.4863 1.99609C88.7441 1.21224 90.2025 0.820312 91.8613 0.820312C94.1582 0.820312 96.0085 1.43555 97.4121 2.66602C98.8158 3.89648 99.627 5.6237 99.8457 7.84766H95.7441C95.6439 6.5625 95.2839 5.63281 94.6641 5.05859C94.0534 4.47526 93.1191 4.18359 91.8613 4.18359C90.4941 4.18359 89.4688 4.67578 88.7852 5.66016C88.1107 6.63542 87.7643 8.15299 87.7461 10.2129V11.7168C87.7461 13.8678 88.0697 15.4401 88.7168 16.4336C89.373 17.4271 90.403 17.9238 91.8066 17.9238C93.0736 17.9238 94.0169 17.6367 94.6367 17.0625C95.2656 16.4792 95.6257 15.5814 95.7168 14.3691H99.8184ZM101.637 13.4668C101.637 11.9993 101.919 10.6914 102.484 9.54297C103.049 8.39453 103.861 7.50586 104.918 6.87695C105.984 6.24805 107.219 5.93359 108.623 5.93359C110.619 5.93359 112.246 6.54427 113.504 7.76562C114.771 8.98698 115.477 10.6458 115.623 12.7422L115.65 13.7539C115.65 16.0234 115.017 17.8464 113.75 19.2227C112.483 20.5898 110.783 21.2734 108.65 21.2734C106.518 21.2734 104.813 20.5898 103.537 19.2227C102.27 17.8555 101.637 15.9961 101.637 13.6445V13.4668ZM105.588 13.7539C105.588 15.1576 105.852 16.2331 106.381 16.9805C106.91 17.7188 107.666 18.0879 108.65 18.0879C109.607 18.0879 110.355 17.7233 110.893 16.9941C111.43 16.2559 111.699 15.0801 111.699 13.4668C111.699 12.0905 111.43 11.0241 110.893 10.2676C110.355 9.51107 109.598 9.13281 108.623 9.13281C107.657 9.13281 106.91 9.51107 106.381 10.2676C105.852 11.015 105.588 12.1771 105.588 13.7539ZM121.789 6.20703L121.912 7.86133C122.96 6.57617 124.378 5.93359 126.164 5.93359C128.069 5.93359 129.377 6.68555 130.088 8.18945C131.127 6.68555 132.608 5.93359 134.531 5.93359C136.135 5.93359 137.329 6.40299 138.113 7.3418C138.897 8.27148 139.289 9.67513 139.289 11.5527V21H135.324V11.5664C135.324 10.7279 135.16 10.1172 134.832 9.73438C134.504 9.34245 133.925 9.14648 133.096 9.14648C131.911 9.14648 131.09 9.71159 130.635 10.8418L130.648 21H126.697V11.5801C126.697 10.7233 126.529 10.1035 126.191 9.7207C125.854 9.33789 125.28 9.14648 124.469 9.14648C123.348 9.14648 122.536 9.61133 122.035 10.541V21H118.084V6.20703H121.789ZM13.0225 34.3887C13.0225 34.0013 12.8857 33.7051 12.6123 33.5C12.3389 33.2904 11.8467 33.0716 11.1357 32.8438C10.4248 32.6113 9.86198 32.3835 9.44727 32.1602C8.31706 31.5495 7.75195 30.7269 7.75195 29.6924C7.75195 29.1546 7.90234 28.6761 8.20312 28.2568C8.50846 27.833 8.94368 27.5026 9.50879 27.2656C10.0785 27.0286 10.7165 26.9102 11.4229 26.9102C12.1338 26.9102 12.7673 27.04 13.3232 27.2998C13.8792 27.555 14.3099 27.9173 14.6152 28.3867C14.9251 28.8561 15.0801 29.3893 15.0801 29.9863H13.0293C13.0293 29.5306 12.8857 29.1774 12.5986 28.9268C12.3115 28.6715 11.9082 28.5439 11.3887 28.5439C10.8874 28.5439 10.4977 28.651 10.2197 28.8652C9.94173 29.0749 9.80273 29.3529 9.80273 29.6992C9.80273 30.0228 9.96452 30.2939 10.2881 30.5127C10.6162 30.7314 11.097 30.9365 11.7305 31.1279C12.8971 31.4788 13.7471 31.9141 14.2803 32.4336C14.8135 32.9531 15.0801 33.6003 15.0801 34.375C15.0801 35.2363 14.7542 35.9131 14.1025 36.4053C13.4508 36.8929 12.5736 37.1367 11.4707 37.1367C10.7051 37.1367 10.0078 36.9977 9.37891 36.7197C8.75 36.4372 8.26921 36.0521 7.93652 35.5645C7.6084 35.0768 7.44434 34.5117 7.44434 33.8691H9.50195C9.50195 34.9674 10.1582 35.5166 11.4707 35.5166C11.9583 35.5166 12.3389 35.4186 12.6123 35.2227C12.8857 35.0221 13.0225 34.7441 13.0225 34.3887ZM20.7744 36.248C20.2868 36.8405 19.6123 37.1367 18.751 37.1367C17.958 37.1367 17.3519 36.9089 16.9326 36.4531C16.5179 35.9974 16.306 35.3298 16.2969 34.4502V29.6035H18.2725V34.3818C18.2725 35.152 18.6234 35.5371 19.3252 35.5371C19.9951 35.5371 20.4554 35.3047 20.7061 34.8398V29.6035H22.6885V37H20.8291L20.7744 36.248ZM27.2549 35.5439C27.6195 35.5439 27.9157 35.4437 28.1436 35.2432C28.3714 35.0426 28.4899 34.776 28.499 34.4434H30.3516C30.347 34.9447 30.2103 35.4049 29.9414 35.8242C29.6725 36.2389 29.3034 36.5625 28.834 36.7949C28.3691 37.0228 27.8542 37.1367 27.2891 37.1367C26.2318 37.1367 25.3978 36.8018 24.7871 36.1318C24.1764 35.4574 23.8711 34.5277 23.8711 33.3428V33.2129C23.8711 32.0736 24.1742 31.1644 24.7803 30.4854C25.3864 29.8063 26.2181 29.4668 27.2754 29.4668C28.2005 29.4668 28.9411 29.7311 29.4971 30.2598C30.0576 30.7839 30.3424 31.4834 30.3516 32.3584H28.499C28.4899 31.9756 28.3714 31.6657 28.1436 31.4287C27.9157 31.1872 27.6149 31.0664 27.2412 31.0664C26.7809 31.0664 26.4323 31.235 26.1953 31.5723C25.9629 31.9049 25.8467 32.4473 25.8467 33.1992V33.4043C25.8467 34.1654 25.9629 34.7122 26.1953 35.0449C26.4277 35.3776 26.7809 35.5439 27.2549 35.5439ZM34.5557 35.5439C34.9202 35.5439 35.2165 35.4437 35.4443 35.2432C35.6722 35.0426 35.7907 34.776 35.7998 34.4434H37.6523C37.6478 34.9447 37.5111 35.4049 37.2422 35.8242C36.9733 36.2389 36.6042 36.5625 36.1348 36.7949C35.6699 37.0228 35.1549 37.1367 34.5898 37.1367C33.5326 37.1367 32.6986 36.8018 32.0879 36.1318C31.4772 35.4574 31.1719 34.5277 31.1719 33.3428V33.2129C31.1719 32.0736 31.4749 31.1644 32.0811 30.4854C32.6872 29.8063 33.5189 29.4668 34.5762 29.4668C35.5013 29.4668 36.2419 29.7311 36.7979 30.2598C37.3584 30.7839 37.6432 31.4834 37.6523 32.3584H35.7998C35.7907 31.9756 35.6722 31.6657 35.4443 31.4287C35.2165 31.1872 34.9157 31.0664 34.542 31.0664C34.0817 31.0664 33.7331 31.235 33.4961 31.5723C33.2637 31.9049 33.1475 32.4473 33.1475 33.1992V33.4043C33.1475 34.1654 33.2637 34.7122 33.4961 35.0449C33.7285 35.3776 34.0817 35.5439 34.5557 35.5439ZM42.1846 37.1367C41.0999 37.1367 40.2158 36.804 39.5322 36.1387C38.8532 35.4733 38.5137 34.5869 38.5137 33.4795V33.2881C38.5137 32.5452 38.6572 31.8822 38.9443 31.2988C39.2314 30.7109 39.637 30.2598 40.1611 29.9453C40.6898 29.6263 41.2913 29.4668 41.9658 29.4668C42.9775 29.4668 43.7728 29.7858 44.3516 30.4238C44.9349 31.0618 45.2266 31.9665 45.2266 33.1377V33.9443H40.5166C40.5804 34.4274 40.7718 34.8148 41.0908 35.1064C41.4144 35.3981 41.8223 35.5439 42.3145 35.5439C43.0755 35.5439 43.6702 35.2682 44.0986 34.7168L45.0693 35.8037C44.7731 36.223 44.3721 36.5511 43.8662 36.7881C43.3604 37.0205 42.7998 37.1367 42.1846 37.1367ZM41.959 31.0664C41.5671 31.0664 41.248 31.1986 41.002 31.4629C40.7604 31.7272 40.6055 32.1055 40.5371 32.5977H43.2852V32.4404C43.276 32.0029 43.1576 31.6657 42.9297 31.4287C42.7018 31.1872 42.3783 31.0664 41.959 31.0664ZM50.3604 34.9561C50.3604 34.7145 50.2396 34.5254 49.998 34.3887C49.7611 34.2474 49.3783 34.1221 48.8496 34.0127C47.0905 33.6436 46.2109 32.8962 46.2109 31.7705C46.2109 31.1143 46.4821 30.5674 47.0244 30.1299C47.5713 29.6878 48.2845 29.4668 49.1641 29.4668C50.1029 29.4668 50.8525 29.6878 51.4131 30.1299C51.9782 30.5719 52.2607 31.1462 52.2607 31.8525H50.2852C50.2852 31.57 50.194 31.3376 50.0117 31.1553C49.8294 30.9684 49.5446 30.875 49.1572 30.875C48.8245 30.875 48.5671 30.9502 48.3848 31.1006C48.2025 31.251 48.1113 31.4424 48.1113 31.6748C48.1113 31.8936 48.2139 32.0713 48.4189 32.208C48.6286 32.3402 48.9795 32.4564 49.4717 32.5566C49.9639 32.6523 50.3786 32.7617 50.7158 32.8848C51.7594 33.2676 52.2812 33.9307 52.2812 34.874C52.2812 35.5485 51.9919 36.0954 51.4131 36.5146C50.8343 36.9294 50.0869 37.1367 49.1709 37.1367C48.5511 37.1367 47.9997 37.0273 47.5166 36.8086C47.0381 36.5853 46.6621 36.2822 46.3887 35.8994C46.1152 35.512 45.9785 35.0951 45.9785 34.6484H47.8516C47.8698 34.9993 47.9997 35.2682 48.2412 35.4551C48.4827 35.6419 48.8063 35.7354 49.2119 35.7354C49.5902 35.7354 49.875 35.6647 50.0664 35.5234C50.2624 35.3776 50.3604 35.1885 50.3604 34.9561ZM57.5654 34.9561C57.5654 34.7145 57.4447 34.5254 57.2031 34.3887C56.9661 34.2474 56.5833 34.1221 56.0547 34.0127C54.2956 33.6436 53.416 32.8962 53.416 31.7705C53.416 31.1143 53.6872 30.5674 54.2295 30.1299C54.7764 29.6878 55.4896 29.4668 56.3691 29.4668C57.3079 29.4668 58.0576 29.6878 58.6182 30.1299C59.1833 30.5719 59.4658 31.1462 59.4658 31.8525H57.4902C57.4902 31.57 57.3991 31.3376 57.2168 31.1553C57.0345 30.9684 56.7497 30.875 56.3623 30.875C56.0296 30.875 55.7721 30.9502 55.5898 31.1006C55.4076 31.251 55.3164 31.4424 55.3164 31.6748C55.3164 31.8936 55.4189 32.0713 55.624 32.208C55.8337 32.3402 56.1846 32.4564 56.6768 32.5566C57.1689 32.6523 57.5837 32.7617 57.9209 32.8848C58.9645 33.2676 59.4863 33.9307 59.4863 34.874C59.4863 35.5485 59.1969 36.0954 58.6182 36.5146C58.0394 36.9294 57.292 37.1367 56.376 37.1367C55.7562 37.1367 55.2048 37.0273 54.7217 36.8086C54.2432 36.5853 53.8672 36.2822 53.5938 35.8994C53.3203 35.512 53.1836 35.0951 53.1836 34.6484H55.0566C55.0749 34.9993 55.2048 35.2682 55.4463 35.4551C55.6878 35.6419 56.0114 35.7354 56.417 35.7354C56.7952 35.7354 57.0801 35.6647 57.2715 35.5234C57.4674 35.3776 57.5654 35.1885 57.5654 34.9561ZM66.3359 37H64.3535V29.6035H66.3359V37ZM64.2373 27.6895C64.2373 27.3932 64.3353 27.1494 64.5312 26.958C64.7318 26.7666 65.0029 26.6709 65.3447 26.6709C65.682 26.6709 65.9508 26.7666 66.1514 26.958C66.3519 27.1494 66.4521 27.3932 66.4521 27.6895C66.4521 27.9902 66.3496 28.2363 66.1445 28.4277C65.944 28.6191 65.6774 28.7148 65.3447 28.7148C65.012 28.7148 64.7432 28.6191 64.5381 28.4277C64.3376 28.2363 64.2373 27.9902 64.2373 27.6895ZM71.9756 34.9561C71.9756 34.7145 71.8548 34.5254 71.6133 34.3887C71.3763 34.2474 70.9935 34.1221 70.4648 34.0127C68.7057 33.6436 67.8262 32.8962 67.8262 31.7705C67.8262 31.1143 68.0973 30.5674 68.6396 30.1299C69.1865 29.6878 69.8997 29.4668 70.7793 29.4668C71.7181 29.4668 72.4678 29.6878 73.0283 30.1299C73.5934 30.5719 73.876 31.1462 73.876 31.8525H71.9004C71.9004 31.57 71.8092 31.3376 71.627 31.1553C71.4447 30.9684 71.1598 30.875 70.7725 30.875C70.4398 30.875 70.1823 30.9502 70 31.1006C69.8177 31.251 69.7266 31.4424 69.7266 31.6748C69.7266 31.8936 69.8291 32.0713 70.0342 32.208C70.2438 32.3402 70.5947 32.4564 71.0869 32.5566C71.5791 32.6523 71.9938 32.7617 72.3311 32.8848C73.3747 33.2676 73.8965 33.9307 73.8965 34.874C73.8965 35.5485 73.6071 36.0954 73.0283 36.5146C72.4495 36.9294 71.7021 37.1367 70.7861 37.1367C70.1663 37.1367 69.6149 37.0273 69.1318 36.8086C68.6533 36.5853 68.2773 36.2822 68.0039 35.8994C67.7305 35.512 67.5938 35.0951 67.5938 34.6484H69.4668C69.485 34.9993 69.6149 35.2682 69.8564 35.4551C70.098 35.6419 70.4215 35.7354 70.8271 35.7354C71.2054 35.7354 71.4902 35.6647 71.6816 35.5234C71.8776 35.3776 71.9756 35.1885 71.9756 34.9561ZM80.5889 30.4102C81.113 29.7812 81.7715 29.4668 82.5645 29.4668C84.1686 29.4668 84.9821 30.3988 85.0049 32.2627V37H83.0293V32.3174C83.0293 31.8936 82.9382 31.5814 82.7559 31.3809C82.5736 31.1758 82.2705 31.0732 81.8467 31.0732C81.2679 31.0732 80.8486 31.2965 80.5889 31.7432V37H78.6133V26.5H80.5889V30.4102ZM89.8994 37.1367C88.8148 37.1367 87.9307 36.804 87.2471 36.1387C86.568 35.4733 86.2285 34.5869 86.2285 33.4795V33.2881C86.2285 32.5452 86.3721 31.8822 86.6592 31.2988C86.9463 30.7109 87.3519 30.2598 87.876 29.9453C88.4046 29.6263 89.0062 29.4668 89.6807 29.4668C90.6924 29.4668 91.4876 29.7858 92.0664 30.4238C92.6497 31.0618 92.9414 31.9665 92.9414 33.1377V33.9443H88.2314C88.2952 34.4274 88.4867 34.8148 88.8057 35.1064C89.1292 35.3981 89.5371 35.5439 90.0293 35.5439C90.7904 35.5439 91.3851 35.2682 91.8135 34.7168L92.7842 35.8037C92.488 36.223 92.0869 36.5511 91.5811 36.7881C91.0752 37.0205 90.5146 37.1367 89.8994 37.1367ZM89.6738 31.0664C89.2819 31.0664 88.9629 31.1986 88.7168 31.4629C88.4753 31.7272 88.3203 32.1055 88.252 32.5977H91V32.4404C90.9909 32.0029 90.8724 31.6657 90.6445 31.4287C90.4167 31.1872 90.0931 31.0664 89.6738 31.0664ZM98.2256 31.4561C97.9567 31.4196 97.7197 31.4014 97.5146 31.4014C96.7673 31.4014 96.2773 31.6543 96.0449 32.1602V37H94.0693V29.6035H95.9355L95.9902 30.4854C96.3867 29.8063 96.9359 29.4668 97.6377 29.4668C97.8564 29.4668 98.0615 29.4964 98.2529 29.5557L98.2256 31.4561ZM102.45 37.1367C101.366 37.1367 100.481 36.804 99.7979 36.1387C99.1188 35.4733 98.7793 34.5869 98.7793 33.4795V33.2881C98.7793 32.5452 98.9229 31.8822 99.21 31.2988C99.4971 30.7109 99.9027 30.2598 100.427 29.9453C100.955 29.6263 101.557 29.4668 102.231 29.4668C103.243 29.4668 104.038 29.7858 104.617 30.4238C105.201 31.0618 105.492 31.9665 105.492 33.1377V33.9443H100.782C100.846 34.4274 101.037 34.8148 101.356 35.1064C101.68 35.3981 102.088 35.5439 102.58 35.5439C103.341 35.5439 103.936 35.2682 104.364 34.7168L105.335 35.8037C105.039 36.223 104.638 36.5511 104.132 36.7881C103.626 37.0205 103.065 37.1367 102.45 37.1367ZM102.225 31.0664C101.833 31.0664 101.514 31.1986 101.268 31.4629C101.026 31.7272 100.871 32.1055 100.803 32.5977H103.551V32.4404C103.542 32.0029 103.423 31.6657 103.195 31.4287C102.967 31.1872 102.644 31.0664 102.225 31.0664Z" fill="#006CD0"/>
</svg>
